# xmcd
#
# Track frame offsets:
#	150
#	24047
#	48572
#	67107
#	85126
#	105026
#	126165
#	154623
#	175464
#	205644
#	238575
#	254098
#
# Disc length: 3539 seconds
#
# Revision: 0
# Processed by: cddbd v1.4PL0 Copyright (c) Steve Scherf et al.
# Submitted via: audiograbber 1.81.02
#
DISCID=970dd10c
DTITLE=Marjo - Bootleg Blues
DYEAR=1997
DGENRE=Blues
TTITLE0=You Give Me Nothing But The Blues
TTITLE1=My Baby's Sweeter
TTITLE2=Good Rocking Daddy
TTITLE3=Blues Before Sunrise
TTITLE4=God Bless The Child
TTITLE5=I Wish You Could See Me Now
TTITLE6=I Want To Shout About It
TTITLE7=Blues As Blues Can Get
TTITLE8=Don't You Lie To Me
TTITLE9=Bopping The Boogie - I Want You To Be My Baby
TTITLE10=Baby Doll
TTITLE11=Finale (Celebrate The Blues)
EXTD=www.QuebecPop.com
EXTT0=
EXTT1=
EXTT2=
EXTT3=
EXTT4=
EXTT5=
EXTT6=
EXTT7=
EXTT8=
EXTT9=
EXTT10=
EXTT11=
PLAYORDER=
